<?xml version="1.0" encoding="UTF-8" standalone="no"?>
<svg
   xmlns:dc="http://purl.org/dc/elements/1.1/"
   xmlns:cc="http://creativecommons.org/ns#"
   xmlns:rdf="http://www.w3.org/1999/02/22-rdf-syntax-ns#"
   xmlns:svg="http://www.w3.org/2000/svg"
   xmlns="http://www.w3.org/2000/svg"
   width="64"
   height="64"
   viewBox="0 0 16.933332 16.933332"
   version="1.1"
   id="svg8">
  <defs
     id="defs2" />
  <metadata
     id="metadata5">
    <rdf:RDF>
      <cc:Work
         rdf:about="">
        <dc:format>image/svg+xml</dc:format>
        <dc:type
           rdf:resource="http://purl.org/dc/dcmitype/StillImage" />
        <dc:title></dc:title>
      </cc:Work>
    </rdf:RDF>
  </metadata>
  <path
     id="rect1132"
     d="m 2.9104164,0.5291666 c -0.3574002,0 -0.6548887,0.2354751 -0.7549927,0.559139 C 1.8557709,0.9302099 1.4795252,0.9740715 1.2267984,1.2267984 0.97407162,1.4795252 0.93020982,1.855771 1.0883055,2.1554238 0.76464172,2.2555278 0.52916652,2.5530161 0.52916652,2.9104164 c 0,0.3574003 0.2354752,0.6548887 0.55913898,0.7549926 -0.15809568,0.2996529 -0.11423388,0.6758987 0.1384929,0.9286254 0.2527268,0.2527269 0.6289725,0.2965885 0.9286253,0.1384929 0.100104,0.3236638 0.3975922,0.5591389 0.7549927,0.5591389 0.3574002,0 0.6548886,-0.2354751 0.7549927,-0.5591389 C 3.9650618,4.8906229 4.3413075,4.8467613 4.5940343,4.5940344 4.8467611,4.3413077 4.8906229,3.9650619 4.7325273,3.665409 5.056191,3.565305 5.2916662,3.2678167 5.2916662,2.9104164 5.2916662,2.5530161 5.056191,2.2555278 4.7325273,2.1554238 4.8906229,1.855771 4.8467611,1.4795252 4.5940343,1.2267984 4.3413075,0.9740716 3.9650618,0.93021 3.6654091,1.0883056 3.565305,0.7646417 3.2678168,0.5291666 2.9104164,0.5291666 Z"
     style="opacity:1;fill:#302b00;fill-opacity:1;stroke:none;stroke-width:0.529167;stroke-linecap:round;stroke-linejoin:miter;stroke-miterlimit:4;stroke-dasharray:none;stroke-dashoffset:0;stroke-opacity:1" />
  <path
     id="rect1129"
     d="m 2.9104164,1.0583332 c -0.1465794,0 -0.2645833,0.1180039 -0.2645833,0.2645833 v 0.9487793 l -0.67076,-0.6707601 c -0.1036473,-0.1036473 -0.2704901,-0.1036474 -0.3741375,0 -0.1036473,0.1036474 -0.1036473,0.27049 0,0.3741374 l 0.6707603,0.67076 H 1.3229165 c -0.1465794,0 -0.2645833,0.1180038 -0.2645833,0.2645833 0,0.1465795 0.1180039,0.2645833 0.2645833,0.2645833 h 0.9487794 l -0.6707603,0.67076 c -0.1036473,0.1036475 -0.1036473,0.27049 0,0.3741374 0.1036474,0.1036474 0.2704902,0.1036474 0.3741375,0 l 0.67076,-0.67076 v 0.9487792 c 0,0.1465795 0.1180039,0.2645833 0.2645833,0.2645833 0.1465794,0 0.2645833,-0.1180038 0.2645833,-0.2645833 V 3.5491371 l 0.6707599,0.67076 c 0.1036474,0.1036474 0.2704902,0.1036474 0.3741375,0 0.1036474,-0.1036474 0.1036474,-0.2704901 0,-0.3741374 l -0.6707602,-0.67076 h 0.9487793 c 0.1465794,0 0.2645833,-0.1180038 0.2645833,-0.2645833 0,-0.1465795 -0.1180039,-0.2645833 -0.2645833,-0.2645833 H 3.5491369 l 0.6707602,-0.67076 c 0.1036474,-0.1036474 0.1036474,-0.2704901 0,-0.3741374 -0.1036473,-0.1036474 -0.2704901,-0.1036474 -0.3741375,0 L 3.1749997,2.2716958 V 1.3229165 c 0,-0.1465794 -0.1180039,-0.2645833 -0.2645833,-0.2645833 z"
     style="opacity:1;fill:#edd400;fill-opacity:1;stroke:none;stroke-width:0.52916664;stroke-linecap:round;stroke-linejoin:miter;stroke-miterlimit:4;stroke-dasharray:none;stroke-dashoffset:0;stroke-opacity:1" />
  <path
     id="path1489"
     d="m 8.4666661,0.5291662 c -0.3574002,0 -0.6548887,0.2354751 -0.7549927,0.559139 C 7.4120206,0.9302095 7.0357749,0.9740711 6.7830481,1.226798 6.5303214,1.4795248 6.4864596,1.8557706 6.6445552,2.1554234 6.3208915,2.2555274 6.0854163,2.5530157 6.0854163,2.910416 c 0,0.3574003 0.2354752,0.6548887 0.5591389,0.7549926 -0.1580956,0.2996529 -0.1142338,0.6758987 0.1384929,0.9286254 0.2527268,0.2527269 0.6289725,0.2965885 0.9286253,0.1384929 0.100104,0.3236638 0.3975922,0.5591389 0.7549927,0.5591389 0.3574002,0 0.6548886,-0.2354751 0.7549927,-0.5591389 0.2996527,0.1580956 0.6758984,0.114234 0.9286252,-0.1384929 0.252727,-0.2527267 0.296589,-0.6289725 0.138493,-0.9286254 0.323664,-0.100104 0.559139,-0.3975923 0.559139,-0.7549926 0,-0.3574003 -0.235475,-0.6548886 -0.559139,-0.7549926 C 10.446873,1.8557706 10.403011,1.4795248 10.150284,1.226798 9.8975572,0.9740712 9.5213115,0.9302096 9.2216588,1.0883052 9.1215547,0.7646413 8.8240665,0.5291662 8.4666661,0.5291662 Z"
     style="opacity:1;fill:#302b00;fill-opacity:1;stroke:none;stroke-width:0.529167;stroke-linecap:round;stroke-linejoin:miter;stroke-miterlimit:4;stroke-dasharray:none;stroke-dashoffset:0;stroke-opacity:1" />
  <path
     id="path1491"
     d="m 8.4666661,1.0583328 c -0.1465794,0 -0.2645833,0.1180039 -0.2645833,0.2645833 v 0.9487793 l -0.67076,-0.6707601 c -0.1036473,-0.1036473 -0.2704901,-0.1036474 -0.3741375,0 -0.1036473,0.1036474 -0.1036473,0.27049 0,0.3741374 l 0.6707603,0.67076 H 6.8791662 c -0.1465794,0 -0.2645833,0.1180038 -0.2645833,0.2645833 0,0.1465795 0.1180039,0.2645833 0.2645833,0.2645833 h 0.9487794 l -0.6707603,0.67076 c -0.1036473,0.1036475 -0.1036473,0.27049 0,0.3741374 0.1036474,0.1036474 0.2704902,0.1036474 0.3741375,0 l 0.67076,-0.67076 v 0.9487792 c 0,0.1465795 0.1180039,0.2645833 0.2645833,0.2645833 0.1465794,0 0.2645833,-0.1180038 0.2645833,-0.2645833 V 3.5491367 l 0.6707599,0.67076 c 0.1036474,0.1036474 0.2704902,0.1036474 0.3741375,0 0.1036474,-0.1036474 0.1036474,-0.2704901 0,-0.3741374 l -0.6707602,-0.67076 h 0.9487794 c 0.146579,0 0.264583,-0.1180038 0.264583,-0.2645833 0,-0.1465795 -0.118004,-0.2645833 -0.264583,-0.2645833 H 9.1053866 l 0.6707602,-0.67076 c 0.1036474,-0.1036474 0.1036474,-0.2704901 0,-0.3741374 -0.1036473,-0.1036474 -0.2704901,-0.1036474 -0.3741375,0 L 8.7312494,2.2716954 V 1.3229161 c 0,-0.1465794 -0.1180039,-0.2645833 -0.2645833,-0.2645833 z"
     style="opacity:1;fill:#edd400;fill-opacity:1;stroke:none;stroke-width:0.529167;stroke-linecap:round;stroke-linejoin:miter;stroke-miterlimit:4;stroke-dasharray:none;stroke-dashoffset:0;stroke-opacity:1" />
  <path
     id="path1493"
     d="m 14.022916,0.5291662 c -0.3574,0 -0.654889,0.2354751 -0.754993,0.559139 -0.299653,-0.1580957 -0.675898,-0.1142341 -0.928625,0.1384928 -0.252727,0.2527268 -0.296589,0.6289726 -0.138493,0.9286254 -0.323664,0.100104 -0.559139,0.3975923 -0.559139,0.7549926 0,0.3574003 0.235475,0.6548887 0.559139,0.7549926 -0.158096,0.2996529 -0.114234,0.6758987 0.138493,0.9286254 0.252727,0.2527269 0.628972,0.2965885 0.928625,0.1384929 0.100104,0.3236638 0.397592,0.5591389 0.754993,0.5591389 0.3574,0 0.654889,-0.2354751 0.754993,-0.5591389 0.299652,0.1580956 0.675898,0.114234 0.928625,-0.1384929 0.252727,-0.2527267 0.296589,-0.6289725 0.138493,-0.9286254 0.323664,-0.100104 0.559139,-0.3975923 0.559139,-0.7549926 0,-0.3574003 -0.235475,-0.6548886 -0.559139,-0.7549926 C 16.003123,1.8557706 15.959261,1.4795248 15.706534,1.226798 15.453807,0.9740712 15.077561,0.9302096 14.777909,1.0883052 14.677805,0.7646413 14.380316,0.5291662 14.022916,0.5291662 Z"
     style="opacity:1;fill:#302b00;fill-opacity:1;stroke:none;stroke-width:0.529167;stroke-linecap:round;stroke-linejoin:miter;stroke-miterlimit:4;stroke-dasharray:none;stroke-dashoffset:0;stroke-opacity:1" />
  <path
     id="path1495"
     d="m 14.022916,1.0583328 c -0.146579,0 -0.264583,0.1180039 -0.264583,0.2645833 v 0.9487793 l -0.67076,-0.6707601 c -0.103648,-0.1036473 -0.27049,-0.1036474 -0.374138,0 -0.103647,0.1036474 -0.103647,0.27049 0,0.3741374 l 0.67076,0.67076 h -0.948779 c -0.146579,0 -0.264583,0.1180038 -0.264583,0.2645833 0,0.1465795 0.118004,0.2645833 0.264583,0.2645833 h 0.948779 l -0.67076,0.67076 c -0.103647,0.1036475 -0.103647,0.27049 0,0.3741374 0.103648,0.1036474 0.27049,0.1036474 0.374138,0 l 0.67076,-0.67076 v 0.9487792 c 0,0.1465795 0.118004,0.2645833 0.264583,0.2645833 0.146579,0 0.264583,-0.1180038 0.264583,-0.2645833 V 3.5491367 l 0.67076,0.67076 c 0.103648,0.1036474 0.27049,0.1036474 0.374138,0 0.103647,-0.1036474 0.103647,-0.2704901 0,-0.3741374 l -0.670761,-0.67076 h 0.94878 c 0.146579,0 0.264583,-0.1180038 0.264583,-0.2645833 0,-0.1465795 -0.118004,-0.2645833 -0.264583,-0.2645833 h -0.94878 l 0.670761,-0.67076 c 0.103647,-0.1036474 0.103647,-0.2704901 0,-0.3741374 -0.103648,-0.1036474 -0.27049,-0.1036474 -0.374138,0 l -0.67076,0.6707601 V 1.3229161 c 0,-0.1465794 -0.118004,-0.2645833 -0.264583,-0.2645833 z"
     style="opacity:1;fill:#edd400;fill-opacity:1;stroke:none;stroke-width:0.529167;stroke-linecap:round;stroke-linejoin:miter;stroke-miterlimit:4;stroke-dasharray:none;stroke-dashoffset:0;stroke-opacity:1" />
  <path
     id="path1501"
     d="m 2.9104161,6.0854163 c -0.3574002,0 -0.6548887,0.2354751 -0.7549927,0.559139 C 1.8557706,6.4864596 1.4795249,6.5303212 1.2267981,6.7830481 0.97407136,7.0357749 0.93020956,7.4120207 1.0883052,7.7116735 0.76464146,7.8117775 0.52916626,8.1092658 0.52916626,8.4666661 c 0,0.3574003 0.2354752,0.6548887 0.55913894,0.7549926 -0.15809564,0.2996529 -0.11423384,0.6758987 0.1384929,0.9286253 0.2527268,0.252727 0.6289725,0.296589 0.9286253,0.138493 0.100104,0.323664 0.3975922,0.559139 0.7549927,0.559139 0.3574002,0 0.6548886,-0.235475 0.7549927,-0.559139 0.2996527,0.158096 0.6758984,0.114234 0.9286252,-0.138493 C 4.8467608,9.8975574 4.8906226,9.5213116 4.732527,9.2216587 5.0561907,9.1215547 5.2916659,8.8240664 5.2916659,8.4666661 5.2916659,8.1092658 5.0561907,7.8117775 4.732527,7.7116735 4.8906226,7.4120207 4.8467608,7.0357749 4.594034,6.7830481 4.3413072,6.5303213 3.9650615,6.4864597 3.6654088,6.6445553 3.5653047,6.3208914 3.2678165,6.0854163 2.9104161,6.0854163 Z"
     style="opacity:1;fill:#302b00;fill-opacity:1;stroke:none;stroke-width:0.529167;stroke-linecap:round;stroke-linejoin:miter;stroke-miterlimit:4;stroke-dasharray:none;stroke-dashoffset:0;stroke-opacity:1" />
  <path
     id="path1503"
     d="m 2.9104161,6.6145829 c -0.1465794,0 -0.2645833,0.1180039 -0.2645833,0.2645833 v 0.9487793 l -0.67076,-0.6707601 c -0.1036473,-0.1036473 -0.2704901,-0.1036474 -0.3741375,0 -0.1036473,0.1036474 -0.1036473,0.27049 0,0.3741374 l 0.6707603,0.67076 H 1.3229162 c -0.1465794,0 -0.2645833,0.1180038 -0.2645833,0.2645833 0,0.1465795 0.1180039,0.2645833 0.2645833,0.2645833 h 0.9487794 l -0.6707603,0.67076 c -0.1036473,0.1036475 -0.1036473,0.27049 0,0.3741374 0.1036474,0.1036474 0.2704902,0.1036474 0.3741375,0 l 0.67076,-0.67076 v 0.9487792 c 0,0.14658 0.1180039,0.264583 0.2645833,0.264583 0.1465794,0 0.2645833,-0.118003 0.2645833,-0.264583 V 9.1053868 l 0.6707599,0.67076 c 0.1036474,0.1036474 0.2704902,0.1036474 0.3741375,0 0.1036474,-0.1036474 0.1036474,-0.2704901 0,-0.3741374 l -0.6707602,-0.67076 h 0.9487793 c 0.1465794,0 0.2645833,-0.1180038 0.2645833,-0.2645833 0,-0.1465795 -0.1180039,-0.2645833 -0.2645833,-0.2645833 H 3.5491366 l 0.6707602,-0.67076 c 0.1036474,-0.1036474 0.1036474,-0.2704901 0,-0.3741374 -0.1036473,-0.1036474 -0.2704901,-0.1036474 -0.3741375,0 L 3.1749994,7.8279455 V 6.8791662 c 0,-0.1465794 -0.1180039,-0.2645833 -0.2645833,-0.2645833 z"
     style="opacity:1;fill:#edd400;fill-opacity:1;stroke:none;stroke-width:0.529167;stroke-linecap:round;stroke-linejoin:miter;stroke-miterlimit:4;stroke-dasharray:none;stroke-dashoffset:0;stroke-opacity:1" />
  <path
     id="path1505"
     d="m 8.4666658,6.0854159 c -0.3574002,0 -0.6548887,0.2354751 -0.7549927,0.559139 C 7.4120203,6.4864592 7.0357746,6.5303208 6.7830478,6.7830477 6.5303211,7.0357745 6.4864593,7.4120203 6.6445549,7.7116731 6.3208912,7.8117771 6.085416,8.1092654 6.085416,8.4666657 c 0,0.3574003 0.2354752,0.6548887 0.5591389,0.7549926 -0.1580956,0.2996529 -0.1142338,0.6758987 0.1384929,0.9286257 0.2527268,0.252727 0.6289725,0.296588 0.9286253,0.138493 0.100104,0.323663 0.3975922,0.559139 0.7549927,0.559139 0.3574002,0 0.6548886,-0.235476 0.7549927,-0.559139 0.2996527,0.158095 0.6758984,0.114234 0.9286255,-0.138493 0.252727,-0.252727 0.296589,-0.6289728 0.138493,-0.9286257 0.323664,-0.100104 0.559139,-0.3975923 0.559139,-0.7549926 0,-0.3574003 -0.235475,-0.6548886 -0.559139,-0.7549926 C 10.446873,7.4120203 10.403011,7.0357745 10.150284,6.7830477 9.8975569,6.5303209 9.5213112,6.4864593 9.2216585,6.6445549 9.1215544,6.320891 8.8240662,6.0854159 8.4666658,6.0854159 Z"
     style="opacity:1;fill:#302b00;fill-opacity:1;stroke:none;stroke-width:0.529167;stroke-linecap:round;stroke-linejoin:miter;stroke-miterlimit:4;stroke-dasharray:none;stroke-dashoffset:0;stroke-opacity:1" />
  <path
     id="path1507"
     d="m 8.4666658,6.6145825 c -0.1465794,0 -0.2645833,0.1180039 -0.2645833,0.2645833 V 7.8279451 L 7.5313225,7.157185 c -0.1036473,-0.1036473 -0.2704901,-0.1036474 -0.3741375,0 -0.1036473,0.1036474 -0.1036473,0.27049 0,0.3741374 l 0.6707603,0.67076 H 6.8791659 c -0.1465794,0 -0.2645833,0.1180038 -0.2645833,0.2645833 0,0.1465795 0.1180039,0.2645833 0.2645833,0.2645833 H 7.8279453 L 7.157185,9.402009 c -0.1036473,0.1036475 -0.1036473,0.27049 0,0.3741374 0.1036474,0.1036474 0.2704902,0.1036474 0.3741375,0 l 0.67076,-0.67076 v 0.9487796 c 0,0.146579 0.1180039,0.264583 0.2645833,0.264583 0.1465794,0 0.2645833,-0.118004 0.2645833,-0.264583 V 9.1053864 l 0.6707599,0.67076 c 0.1036474,0.1036474 0.2704902,0.1036474 0.3741375,0 0.1036474,-0.1036474 0.1036474,-0.2704901 0,-0.3741374 L 9.1053863,8.731249 h 0.9487797 c 0.146579,0 0.264583,-0.1180038 0.264583,-0.2645833 0,-0.1465795 -0.118004,-0.2645833 -0.264583,-0.2645833 H 9.1053863 l 0.6707602,-0.67076 c 0.1036474,-0.1036474 0.1036474,-0.2704901 0,-0.3741374 -0.1036473,-0.1036474 -0.2704901,-0.1036474 -0.3741375,0 L 8.7312491,7.8279451 V 6.8791658 c 0,-0.1465794 -0.1180039,-0.2645833 -0.2645833,-0.2645833 z"
     style="opacity:1;fill:#edd400;fill-opacity:1;stroke:none;stroke-width:0.529167;stroke-linecap:round;stroke-linejoin:miter;stroke-miterlimit:4;stroke-dasharray:none;stroke-dashoffset:0;stroke-opacity:1" />
  <path
     id="path1509"
     d="m 14.022916,6.0854159 c -0.3574,0 -0.654889,0.2354751 -0.754993,0.559139 -0.299653,-0.1580957 -0.675898,-0.1142341 -0.928625,0.1384928 -0.252727,0.2527268 -0.296589,0.6289726 -0.138493,0.9286254 -0.323664,0.100104 -0.559139,0.3975923 -0.559139,0.7549926 0,0.3574003 0.235475,0.6548887 0.559139,0.7549926 -0.158096,0.2996529 -0.114234,0.6758987 0.138493,0.9286257 0.252727,0.252727 0.628972,0.296588 0.928625,0.138493 0.100104,0.323663 0.397592,0.559139 0.754993,0.559139 0.3574,0 0.654889,-0.235476 0.754993,-0.559139 0.299652,0.158095 0.675898,0.114234 0.928625,-0.138493 0.252727,-0.252727 0.296589,-0.6289728 0.138493,-0.9286257 0.323664,-0.100104 0.559139,-0.3975923 0.559139,-0.7549926 0,-0.3574003 -0.235475,-0.6548886 -0.559139,-0.7549926 C 16.003123,7.4120203 15.959261,7.0357745 15.706534,6.7830477 15.453807,6.5303209 15.077561,6.4864593 14.777909,6.6445549 14.677805,6.320891 14.380316,6.0854159 14.022916,6.0854159 Z"
     style="opacity:1;fill:#302b00;fill-opacity:1;stroke:none;stroke-width:0.529167;stroke-linecap:round;stroke-linejoin:miter;stroke-miterlimit:4;stroke-dasharray:none;stroke-dashoffset:0;stroke-opacity:1" />
  <path
     id="path1511"
     d="m 14.022916,6.6145825 c -0.146579,0 -0.264583,0.1180039 -0.264583,0.2645833 V 7.8279451 L 13.087573,7.157185 c -0.103648,-0.1036473 -0.27049,-0.1036474 -0.374138,0 -0.103647,0.1036474 -0.103647,0.27049 0,0.3741374 l 0.67076,0.67076 h -0.948779 c -0.146579,0 -0.264583,0.1180038 -0.264583,0.2645833 0,0.1465795 0.118004,0.2645833 0.264583,0.2645833 h 0.948779 l -0.67076,0.67076 c -0.103647,0.1036475 -0.103647,0.27049 0,0.3741374 0.103648,0.1036474 0.27049,0.1036474 0.374138,0 l 0.67076,-0.67076 v 0.9487796 c 0,0.146579 0.118004,0.264583 0.264583,0.264583 0.146579,0 0.264583,-0.118004 0.264583,-0.264583 V 9.1053864 l 0.67076,0.67076 c 0.103648,0.1036474 0.27049,0.1036474 0.374138,0 0.103647,-0.1036474 0.103647,-0.2704901 0,-0.3741374 l -0.670761,-0.67076 h 0.94878 c 0.146579,0 0.264583,-0.1180038 0.264583,-0.2645833 0,-0.1465795 -0.118004,-0.2645833 -0.264583,-0.2645833 h -0.94878 l 0.670761,-0.67076 c 0.103647,-0.1036474 0.103647,-0.2704901 0,-0.3741374 -0.103648,-0.1036474 -0.27049,-0.1036474 -0.374138,0 l -0.67076,0.6707601 V 6.8791658 c 0,-0.1465794 -0.118004,-0.2645833 -0.264583,-0.2645833 z"
     style="opacity:1;fill:#edd400;fill-opacity:1;stroke:none;stroke-width:0.529167;stroke-linecap:round;stroke-linejoin:miter;stroke-miterlimit:4;stroke-dasharray:none;stroke-dashoffset:0;stroke-opacity:1" />
  <path
     id="path1513"
     d="m 2.9104161,11.641666 c -0.3574002,0 -0.6548887,0.235475 -0.7549927,0.559139 -0.2996528,-0.158096 -0.6758985,-0.114234 -0.9286253,0.138492 -0.25272672,0.252727 -0.29658852,0.628973 -0.1384929,0.928626 -0.32366372,0.100104 -0.55913892,0.397592 -0.55913892,0.754992 0,0.357401 0.2354752,0.654889 0.55913892,0.754993 -0.15809562,0.299653 -0.11423382,0.675899 0.1384929,0.928625 0.2527268,0.252727 0.6289725,0.296589 0.9286253,0.138493 0.100104,0.323664 0.3975922,0.559139 0.7549927,0.559139 0.3574002,0 0.6548886,-0.235475 0.7549927,-0.559139 0.2996527,0.158096 0.6758984,0.114234 0.9286252,-0.138493 0.2527268,-0.252726 0.2965886,-0.628972 0.138493,-0.928625 0.3236637,-0.100104 0.5591389,-0.397592 0.5591389,-0.754993 0,-0.3574 -0.2354752,-0.654888 -0.5591389,-0.754992 C 4.8906226,12.96827 4.8467608,12.592024 4.594034,12.339297 4.3413072,12.086571 3.9650615,12.042709 3.6654088,12.200805 3.5653047,11.877141 3.2678165,11.641666 2.9104161,11.641666 Z"
     style="opacity:1;fill:#302b00;fill-opacity:1;stroke:none;stroke-width:0.529167;stroke-linecap:round;stroke-linejoin:miter;stroke-miterlimit:4;stroke-dasharray:none;stroke-dashoffset:0;stroke-opacity:1" />
  <path
     id="path1515"
     d="m 2.9104161,12.170832 c -0.1465794,0 -0.2645833,0.118004 -0.2645833,0.264584 v 0.948779 l -0.67076,-0.67076 c -0.1036473,-0.103648 -0.2704901,-0.103648 -0.3741375,0 -0.1036473,0.103647 -0.1036473,0.27049 0,0.374137 l 0.6707603,0.67076 H 1.3229162 c -0.1465794,0 -0.2645833,0.118004 -0.2645833,0.264583 0,0.14658 0.1180039,0.264584 0.2645833,0.264584 h 0.9487794 l -0.6707603,0.67076 c -0.1036473,0.103647 -0.1036473,0.27049 0,0.374137 0.1036474,0.103648 0.2704902,0.103648 0.3741375,0 l 0.67076,-0.67076 v 0.948779 c 0,0.14658 0.1180039,0.264583 0.2645833,0.264583 0.1465794,0 0.2645833,-0.118003 0.2645833,-0.264583 v -0.948779 l 0.6707599,0.67076 c 0.1036474,0.103648 0.2704902,0.103648 0.3741375,0 0.1036474,-0.103647 0.1036474,-0.27049 0,-0.374137 l -0.6707602,-0.67076 h 0.9487793 c 0.1465794,0 0.2645833,-0.118004 0.2645833,-0.264584 0,-0.146579 -0.1180039,-0.264583 -0.2645833,-0.264583 H 3.5491366 l 0.6707602,-0.67076 c 0.1036474,-0.103647 0.1036474,-0.27049 0,-0.374137 -0.1036473,-0.103648 -0.2704901,-0.103648 -0.3741375,0 l -0.6707599,0.67076 v -0.948779 c 0,-0.14658 -0.1180039,-0.264584 -0.2645833,-0.264584 z"
     style="opacity:1;fill:#edd400;fill-opacity:1;stroke:none;stroke-width:0.529167;stroke-linecap:round;stroke-linejoin:miter;stroke-miterlimit:4;stroke-dasharray:none;stroke-dashoffset:0;stroke-opacity:1" />
  <path
     id="path1517"
     d="m 8.4666658,11.641665 c -0.3574002,0 -0.6548887,0.235475 -0.7549927,0.559139 C 7.4120203,12.042709 7.0357746,12.08657 6.7830478,12.339297 6.5303211,12.592024 6.4864593,12.96827 6.6445549,13.267922 6.3208912,13.368026 6.085416,13.665515 6.085416,14.022915 c 0,0.3574 0.2354752,0.654889 0.5591389,0.754993 -0.1580956,0.299653 -0.1142338,0.675898 0.1384929,0.928625 0.2527268,0.252727 0.6289725,0.296588 0.9286253,0.138493 0.100104,0.323663 0.3975922,0.559139 0.7549927,0.559139 0.3574002,0 0.6548886,-0.235476 0.7549927,-0.559139 0.2996527,0.158095 0.6758984,0.114234 0.9286255,-0.138493 0.252727,-0.252727 0.296589,-0.628972 0.138493,-0.928625 0.323664,-0.100104 0.559139,-0.397593 0.559139,-0.754993 0,-0.3574 -0.235475,-0.654889 -0.559139,-0.754993 0.158096,-0.299652 0.114234,-0.675898 -0.138493,-0.928625 C 9.8975569,12.08657 9.5213112,12.042709 9.2216585,12.200804 9.1215544,11.87714 8.8240662,11.641665 8.4666658,11.641665 Z"
     style="opacity:1;fill:#302b00;fill-opacity:1;stroke:none;stroke-width:0.529167;stroke-linecap:round;stroke-linejoin:miter;stroke-miterlimit:4;stroke-dasharray:none;stroke-dashoffset:0;stroke-opacity:1" />
  <path
     id="path1519"
     d="m 8.4666658,12.170832 c -0.1465794,0 -0.2645833,0.118004 -0.2645833,0.264583 v 0.948779 l -0.67076,-0.67076 c -0.1036473,-0.103647 -0.2704901,-0.103647 -0.3741375,0 -0.1036473,0.103648 -0.1036473,0.27049 0,0.374138 l 0.6707603,0.67076 H 6.8791659 c -0.1465794,0 -0.2645833,0.118004 -0.2645833,0.264583 0,0.14658 0.1180039,0.264583 0.2645833,0.264583 h 0.9487794 l -0.6707603,0.67076 c -0.1036473,0.103648 -0.1036473,0.27049 0,0.374138 0.1036474,0.103647 0.2704902,0.103647 0.3741375,0 l 0.67076,-0.67076 v 0.948779 c 0,0.146579 0.1180039,0.264583 0.2645833,0.264583 0.1465794,0 0.2645833,-0.118004 0.2645833,-0.264583 v -0.948779 l 0.6707599,0.67076 c 0.1036474,0.103647 0.2704902,0.103647 0.3741375,0 0.1036474,-0.103648 0.1036474,-0.27049 0,-0.374138 l -0.6707602,-0.67076 h 0.9487797 c 0.146579,0 0.264583,-0.118003 0.264583,-0.264583 0,-0.146579 -0.118004,-0.264583 -0.264583,-0.264583 H 9.1053863 l 0.6707602,-0.67076 c 0.1036474,-0.103648 0.1036474,-0.27049 0,-0.374138 -0.1036473,-0.103647 -0.2704901,-0.103647 -0.3741375,0 l -0.6707599,0.67076 v -0.948779 c 0,-0.146579 -0.1180039,-0.264583 -0.2645833,-0.264583 z"
     style="opacity:1;fill:#edd400;fill-opacity:1;stroke:none;stroke-width:0.529167;stroke-linecap:round;stroke-linejoin:miter;stroke-miterlimit:4;stroke-dasharray:none;stroke-dashoffset:0;stroke-opacity:1" />
  <path
     id="path1521"
     d="m 14.022916,11.641665 c -0.3574,0 -0.654889,0.235475 -0.754993,0.559139 -0.299653,-0.158095 -0.675898,-0.114234 -0.928625,0.138493 -0.252727,0.252727 -0.296589,0.628973 -0.138493,0.928625 -0.323664,0.100104 -0.559139,0.397593 -0.559139,0.754993 0,0.3574 0.235475,0.654889 0.559139,0.754993 -0.158096,0.299653 -0.114234,0.675898 0.138493,0.928625 0.252727,0.252727 0.628972,0.296588 0.928625,0.138493 0.100104,0.323663 0.397592,0.559139 0.754993,0.559139 0.3574,0 0.654889,-0.235476 0.754993,-0.559139 0.299652,0.158095 0.675898,0.114234 0.928625,-0.138493 0.252727,-0.252727 0.296589,-0.628972 0.138493,-0.928625 0.323664,-0.100104 0.559139,-0.397593 0.559139,-0.754993 0,-0.3574 -0.235475,-0.654889 -0.559139,-0.754993 0.158096,-0.299652 0.114234,-0.675898 -0.138493,-0.928625 -0.252727,-0.252727 -0.628973,-0.296588 -0.928625,-0.138493 -0.100104,-0.323664 -0.397593,-0.559139 -0.754993,-0.559139 z"
     style="opacity:1;fill:#302b00;fill-opacity:1;stroke:none;stroke-width:0.529167;stroke-linecap:round;stroke-linejoin:miter;stroke-miterlimit:4;stroke-dasharray:none;stroke-dashoffset:0;stroke-opacity:1" />
  <path
     id="path1523"
     d="m 14.022916,12.170832 c -0.146579,0 -0.264583,0.118004 -0.264583,0.264583 v 0.948779 l -0.67076,-0.67076 c -0.103648,-0.103647 -0.27049,-0.103647 -0.374138,0 -0.103647,0.103648 -0.103647,0.27049 0,0.374138 l 0.67076,0.67076 h -0.948779 c -0.146579,0 -0.264583,0.118004 -0.264583,0.264583 0,0.14658 0.118004,0.264583 0.264583,0.264583 h 0.948779 l -0.67076,0.67076 c -0.103647,0.103648 -0.103647,0.27049 0,0.374138 0.103648,0.103647 0.27049,0.103647 0.374138,0 l 0.67076,-0.67076 v 0.948779 c 0,0.146579 0.118004,0.264583 0.264583,0.264583 0.146579,0 0.264583,-0.118004 0.264583,-0.264583 v -0.948779 l 0.67076,0.67076 c 0.103648,0.103647 0.27049,0.103647 0.374138,0 0.103647,-0.103648 0.103647,-0.27049 0,-0.374138 l -0.670761,-0.67076 h 0.94878 c 0.146579,0 0.264583,-0.118003 0.264583,-0.264583 0,-0.146579 -0.118004,-0.264583 -0.264583,-0.264583 h -0.94878 l 0.670761,-0.67076 c 0.103647,-0.103648 0.103647,-0.27049 0,-0.374138 -0.103648,-0.103647 -0.27049,-0.103647 -0.374138,0 l -0.67076,0.67076 v -0.948779 c 0,-0.146579 -0.118004,-0.264583 -0.264583,-0.264583 z"
     style="opacity:1;fill:#edd400;fill-opacity:1;stroke:none;stroke-width:0.529167;stroke-linecap:round;stroke-linejoin:miter;stroke-miterlimit:4;stroke-dasharray:none;stroke-dashoffset:0;stroke-opacity:1" />
</svg>
