<?xml version="1.0" encoding="UTF-8" standalone="no"?>
<svg
   xmlns:dc="http://purl.org/dc/elements/1.1/"
   xmlns:cc="http://creativecommons.org/ns#"
   xmlns:rdf="http://www.w3.org/1999/02/22-rdf-syntax-ns#"
   xmlns:svg="http://www.w3.org/2000/svg"
   xmlns="http://www.w3.org/2000/svg"
   id="svg8"
   version="1.1"
   viewBox="0 0 8.4666659 8.4666659"
   height="32"
   width="32">
  <defs
     id="defs2" />
  <metadata
     id="metadata5">
    <rdf:RDF>
      <cc:Work
         rdf:about="">
        <dc:format>image/svg+xml</dc:format>
        <dc:type
           rdf:resource="http://purl.org/dc/dcmitype/StillImage" />
        <dc:title></dc:title>
      </cc:Work>
    </rdf:RDF>
  </metadata>
  <g
     transform="translate(0,-288.53334)"
     id="layer1">
    <path
       id="path819"
       d="M 1.1226677,288.53378 A 0.10534875,0.10534875 0 0 0 1.0191118,288.641 v 0.7637 l -0.53985723,-0.53985 a 0.10549375,0.10549375 0 1 0 -0.14922926,0.14908 l 0.53889643,0.53877 H 0.10727756 A 0.10534875,0.10534875 0 0 0 1.8965555e-5,289.66003 0.10534875,0.10534875 0 0 0 0.10727756,289.76378 h 0.76479997 l -0.54205226,0.54204 a 0.10557269,0.10557269 0 1 0 0.14936463,0.14924 l 0.5397219,-0.53971 v 0.76191 a 0.10549375,0.10549375 0 1 0 0.2109499,0 v -0.76329 l 0.5398608,0.53985 a 0.10534875,0.10534875 0 0 0 0.1518358,-1.3e-4 0.10534875,0.10534875 0 0 0 -0.00265,-0.14909 l -0.5409568,-0.54076 h 0.7653516 a 0.10554507,0.10554507 0 0 0 0,-0.21109 H 1.3815762 l 0.5375278,-0.53753 a 0.10534875,0.10534875 0 0 0 0,-0.1517 0.10534875,0.10534875 0 0 0 -0.1492292,0.002 l -0.5398609,0.53986 v -0.7648 a 0.10534875,0.10534875 0 0 0 -0.1073938,-0.10722 z"
       style="color:#000000;font-style:normal;font-variant:normal;font-weight:normal;font-stretch:normal;font-size:medium;line-height:normal;font-family:sans-serif;font-variant-ligatures:normal;font-variant-position:normal;font-variant-caps:normal;font-variant-numeric:normal;font-variant-alternates:normal;font-feature-settings:normal;text-indent:0;text-align:start;text-decoration:none;text-decoration-line:none;text-decoration-style:solid;text-decoration-color:#000000;letter-spacing:normal;word-spacing:normal;text-transform:none;writing-mode:lr-tb;direction:ltr;text-orientation:mixed;dominant-baseline:auto;baseline-shift:baseline;text-anchor:start;white-space:normal;shape-padding:0;clip-rule:nonzero;display:inline;overflow:visible;visibility:visible;opacity:1;isolation:auto;mix-blend-mode:normal;color-interpolation:sRGB;color-interpolation-filters:linearRGB;solid-color:#000000;solid-opacity:1;vector-effect:none;fill:#ffff10;fill-opacity:1;fill-rule:nonzero;stroke:none;stroke-width:0.79375005;stroke-linecap:round;stroke-linejoin:miter;stroke-miterlimit:4;stroke-dasharray:none;stroke-dashoffset:0;stroke-opacity:1;color-rendering:auto;image-rendering:auto;shape-rendering:auto;text-rendering:auto;enable-background:accumulate" />
    <path
       style="color:#000000;font-style:normal;font-variant:normal;font-weight:normal;font-stretch:normal;font-size:medium;line-height:normal;font-family:sans-serif;font-variant-ligatures:normal;font-variant-position:normal;font-variant-caps:normal;font-variant-numeric:normal;font-variant-alternates:normal;font-feature-settings:normal;text-indent:0;text-align:start;text-decoration:none;text-decoration-line:none;text-decoration-style:solid;text-decoration-color:#000000;letter-spacing:normal;word-spacing:normal;text-transform:none;writing-mode:lr-tb;direction:ltr;text-orientation:mixed;dominant-baseline:auto;baseline-shift:baseline;text-anchor:start;white-space:normal;shape-padding:0;clip-rule:nonzero;display:inline;overflow:visible;visibility:visible;opacity:1;isolation:auto;mix-blend-mode:normal;color-interpolation:sRGB;color-interpolation-filters:linearRGB;solid-color:#000000;solid-opacity:1;vector-effect:none;fill:#ffff10;fill-opacity:1;fill-rule:nonzero;stroke:none;stroke-width:0.79375005;stroke-linecap:round;stroke-linejoin:miter;stroke-miterlimit:4;stroke-dasharray:none;stroke-dashoffset:0;stroke-opacity:1;color-rendering:auto;image-rendering:auto;shape-rendering:auto;text-rendering:auto;enable-background:accumulate"
       d="M 4.2315373,288.53378 A 0.10534875,0.10534875 0 0 0 4.1279814,288.641 v 0.7637 l -0.5398572,-0.53985 a 0.10549375,0.10549375 0 1 0 -0.1492293,0.14908 l 0.5388965,0.53877 H 3.2161472 a 0.10534875,0.10534875 0 0 0 -0.1072586,0.10733 0.10534875,0.10534875 0 0 0 0.1072586,0.10375 h 0.7647999 l -0.5420522,0.54204 a 0.10557269,0.10557269 0 1 0 0.1493646,0.14924 l 0.5397219,-0.53971 v 0.76191 a 0.10549375,0.10549375 0 1 0 0.2109499,0 v -0.76329 l 0.5398608,0.53985 a 0.10534875,0.10534875 0 0 0 0.1518358,-1.3e-4 0.10534875,0.10534875 0 0 0 -0.00265,-0.14909 l -0.5409568,-0.54076 h 0.7653516 a 0.10554507,0.10554507 0 0 0 0,-0.21109 H 4.4904458 l 0.5375278,-0.53753 a 0.10534875,0.10534875 0 0 0 0,-0.1517 0.10534875,0.10534875 0 0 0 -0.1492292,0.002 l -0.5398609,0.53986 v -0.7648 a 0.10534875,0.10534875 0 0 0 -0.1073938,-0.10722 z"
       id="path938" />
    <path
       id="path940"
       d="M 7.340407,288.53378 A 0.10534875,0.10534875 0 0 0 7.2368511,288.641 v 0.7637 l -0.5398572,-0.53985 a 0.10549375,0.10549375 0 1 0 -0.1492293,0.14908 L 7.086661,289.5527 H 6.3250168 a 0.10534875,0.10534875 0 0 0 -0.1072585,0.10733 0.10534875,0.10534875 0 0 0 0.1072585,0.10375 h 0.7648 l -0.5420522,0.54204 a 0.10557269,0.10557269 0 1 0 0.1493646,0.14924 l 0.5397219,-0.53971 v 0.76191 a 0.10549375,0.10549375 0 1 0 0.2109499,0 v -0.76329 l 0.5398608,0.53985 a 0.10534875,0.10534875 0 0 0 0.1518358,-1.3e-4 0.10534875,0.10534875 0 0 0 -0.00265,-0.14909 l -0.5409568,-0.54076 h 0.7653516 a 0.10554507,0.10554507 0 0 0 0,-0.21109 H 7.5993155 l 0.5375278,-0.53753 a 0.10534875,0.10534875 0 0 0 0,-0.1517 0.10534875,0.10534875 0 0 0 -0.1492292,0.002 l -0.5398609,0.53986 v -0.7648 a 0.10534875,0.10534875 0 0 0 -0.1073938,-0.10722 z"
       style="color:#000000;font-style:normal;font-variant:normal;font-weight:normal;font-stretch:normal;font-size:medium;line-height:normal;font-family:sans-serif;font-variant-ligatures:normal;font-variant-position:normal;font-variant-caps:normal;font-variant-numeric:normal;font-variant-alternates:normal;font-feature-settings:normal;text-indent:0;text-align:start;text-decoration:none;text-decoration-line:none;text-decoration-style:solid;text-decoration-color:#000000;letter-spacing:normal;word-spacing:normal;text-transform:none;writing-mode:lr-tb;direction:ltr;text-orientation:mixed;dominant-baseline:auto;baseline-shift:baseline;text-anchor:start;white-space:normal;shape-padding:0;clip-rule:nonzero;display:inline;overflow:visible;visibility:visible;opacity:1;isolation:auto;mix-blend-mode:normal;color-interpolation:sRGB;color-interpolation-filters:linearRGB;solid-color:#000000;solid-opacity:1;vector-effect:none;fill:#ffff10;fill-opacity:1;fill-rule:nonzero;stroke:none;stroke-width:0.79375005;stroke-linecap:round;stroke-linejoin:miter;stroke-miterlimit:4;stroke-dasharray:none;stroke-dashoffset:0;stroke-opacity:1;color-rendering:auto;image-rendering:auto;shape-rendering:auto;text-rendering:auto;enable-background:accumulate" />
    <path
       style="color:#000000;font-style:normal;font-variant:normal;font-weight:normal;font-stretch:normal;font-size:medium;line-height:normal;font-family:sans-serif;font-variant-ligatures:normal;font-variant-position:normal;font-variant-caps:normal;font-variant-numeric:normal;font-variant-alternates:normal;font-feature-settings:normal;text-indent:0;text-align:start;text-decoration:none;text-decoration-line:none;text-decoration-style:solid;text-decoration-color:#000000;letter-spacing:normal;word-spacing:normal;text-transform:none;writing-mode:lr-tb;direction:ltr;text-orientation:mixed;dominant-baseline:auto;baseline-shift:baseline;text-anchor:start;white-space:normal;shape-padding:0;clip-rule:nonzero;display:inline;overflow:visible;visibility:visible;opacity:1;isolation:auto;mix-blend-mode:normal;color-interpolation:sRGB;color-interpolation-filters:linearRGB;solid-color:#000000;solid-opacity:1;vector-effect:none;fill:#ffff10;fill-opacity:1;fill-rule:nonzero;stroke:none;stroke-width:0.79375005;stroke-linecap:round;stroke-linejoin:miter;stroke-miterlimit:4;stroke-dasharray:none;stroke-dashoffset:0;stroke-opacity:1;color-rendering:auto;image-rendering:auto;shape-rendering:auto;text-rendering:auto;enable-background:accumulate"
       d="m 1.1226677,294.74904 a 0.10534875,0.10534875 0 0 0 -0.1035559,0.10722 v 0.7637 l -0.53985724,-0.53985 a 0.10549375,0.10549375 0 1 0 -0.14922926,0.14908 l 0.53889643,0.53877 H 0.10727755 A 0.10534875,0.10534875 0 0 0 1.8953375e-5,295.87529 0.10534875,0.10534875 0 0 0 0.10727755,295.97904 h 0.76479997 l -0.54205226,0.54204 a 0.10557269,0.10557269 0 1 0 0.14936463,0.14924 l 0.53972191,-0.53971 v 0.76191 a 0.10549375,0.10549375 0 1 0 0.2109499,0 v -0.76329 l 0.5398608,0.53985 a 0.10534875,0.10534875 0 0 0 0.1518358,-1.3e-4 0.10534875,0.10534875 0 0 0 -0.00265,-0.14909 L 1.3781515,295.9791 h 0.7653516 a 0.10554507,0.10554507 0 0 0 0,-0.21109 H 1.3815762 l 0.5375278,-0.53753 a 0.10534875,0.10534875 0 0 0 0,-0.1517 0.10534875,0.10534875 0 0 0 -0.1492292,0.002 l -0.5398609,0.53986 v -0.7648 a 0.10534875,0.10534875 0 0 0 -0.1073938,-0.10722 z"
       id="path942" />
    <path
       id="path944"
       d="m 4.2315373,294.74904 a 0.10534875,0.10534875 0 0 0 -0.1035559,0.10722 v 0.7637 l -0.5398572,-0.53985 a 0.10549375,0.10549375 0 1 0 -0.1492293,0.14908 l 0.5388965,0.53877 H 3.2161472 a 0.10534875,0.10534875 0 0 0 -0.1072586,0.10733 0.10534875,0.10534875 0 0 0 0.1072586,0.10375 h 0.7647999 l -0.5420522,0.54204 a 0.10557269,0.10557269 0 1 0 0.1493646,0.14924 l 0.5397219,-0.53971 v 0.76191 a 0.10549375,0.10549375 0 1 0 0.2109499,0 v -0.76329 l 0.5398608,0.53985 a 0.10534875,0.10534875 0 0 0 0.1518358,-1.3e-4 0.10534875,0.10534875 0 0 0 -0.00265,-0.14909 L 4.4870211,295.9791 h 0.7653516 a 0.10554507,0.10554507 0 0 0 0,-0.21109 H 4.4904458 l 0.5375278,-0.53753 a 0.10534875,0.10534875 0 0 0 0,-0.1517 0.10534875,0.10534875 0 0 0 -0.1492292,0.002 l -0.5398609,0.53986 v -0.7648 a 0.10534875,0.10534875 0 0 0 -0.1073938,-0.10722 z"
       style="color:#000000;font-style:normal;font-variant:normal;font-weight:normal;font-stretch:normal;font-size:medium;line-height:normal;font-family:sans-serif;font-variant-ligatures:normal;font-variant-position:normal;font-variant-caps:normal;font-variant-numeric:normal;font-variant-alternates:normal;font-feature-settings:normal;text-indent:0;text-align:start;text-decoration:none;text-decoration-line:none;text-decoration-style:solid;text-decoration-color:#000000;letter-spacing:normal;word-spacing:normal;text-transform:none;writing-mode:lr-tb;direction:ltr;text-orientation:mixed;dominant-baseline:auto;baseline-shift:baseline;text-anchor:start;white-space:normal;shape-padding:0;clip-rule:nonzero;display:inline;overflow:visible;visibility:visible;opacity:1;isolation:auto;mix-blend-mode:normal;color-interpolation:sRGB;color-interpolation-filters:linearRGB;solid-color:#000000;solid-opacity:1;vector-effect:none;fill:#ffff10;fill-opacity:1;fill-rule:nonzero;stroke:none;stroke-width:0.79375005;stroke-linecap:round;stroke-linejoin:miter;stroke-miterlimit:4;stroke-dasharray:none;stroke-dashoffset:0;stroke-opacity:1;color-rendering:auto;image-rendering:auto;shape-rendering:auto;text-rendering:auto;enable-background:accumulate" />
    <path
       style="color:#000000;font-style:normal;font-variant:normal;font-weight:normal;font-stretch:normal;font-size:medium;line-height:normal;font-family:sans-serif;font-variant-ligatures:normal;font-variant-position:normal;font-variant-caps:normal;font-variant-numeric:normal;font-variant-alternates:normal;font-feature-settings:normal;text-indent:0;text-align:start;text-decoration:none;text-decoration-line:none;text-decoration-style:solid;text-decoration-color:#000000;letter-spacing:normal;word-spacing:normal;text-transform:none;writing-mode:lr-tb;direction:ltr;text-orientation:mixed;dominant-baseline:auto;baseline-shift:baseline;text-anchor:start;white-space:normal;shape-padding:0;clip-rule:nonzero;display:inline;overflow:visible;visibility:visible;opacity:1;isolation:auto;mix-blend-mode:normal;color-interpolation:sRGB;color-interpolation-filters:linearRGB;solid-color:#000000;solid-opacity:1;vector-effect:none;fill:#ffff10;fill-opacity:1;fill-rule:nonzero;stroke:none;stroke-width:0.79375005;stroke-linecap:round;stroke-linejoin:miter;stroke-miterlimit:4;stroke-dasharray:none;stroke-dashoffset:0;stroke-opacity:1;color-rendering:auto;image-rendering:auto;shape-rendering:auto;text-rendering:auto;enable-background:accumulate"
       d="m 7.340407,294.74904 a 0.10534875,0.10534875 0 0 0 -0.1035559,0.10722 v 0.7637 l -0.5398572,-0.53985 a 0.10549375,0.10549375 0 1 0 -0.1492293,0.14908 l 0.5388964,0.53877 H 6.3250168 a 0.10534875,0.10534875 0 0 0 -0.1072585,0.10733 0.10534875,0.10534875 0 0 0 0.1072585,0.10375 h 0.7648 l -0.5420522,0.54204 a 0.10557269,0.10557269 0 1 0 0.1493646,0.14924 l 0.5397219,-0.53971 v 0.76191 a 0.10549375,0.10549375 0 1 0 0.2109499,0 v -0.76329 l 0.5398608,0.53985 a 0.10534875,0.10534875 0 0 0 0.1518358,-1.3e-4 0.10534875,0.10534875 0 0 0 -0.00265,-0.14909 L 7.5958908,295.9791 h 0.7653516 a 0.10554507,0.10554507 0 0 0 0,-0.21109 H 7.5993155 l 0.5375278,-0.53753 a 0.10534875,0.10534875 0 0 0 0,-0.1517 0.10534875,0.10534875 0 0 0 -0.1492292,0.002 l -0.5398609,0.53986 v -0.7648 a 0.10534875,0.10534875 0 0 0 -0.1073938,-0.10722 z"
       id="path946" />
    <path
       id="path948"
       d="m 1.1226677,291.64141 a 0.10534875,0.10534875 0 0 0 -0.1035559,0.10722 v 0.7637 l -0.53985724,-0.53985 a 0.10549375,0.10549375 0 1 0 -0.14922926,0.14908 l 0.53889643,0.53877 H 0.10727755 A 0.10534875,0.10534875 0 0 0 1.8953375e-5,292.76766 0.10534875,0.10534875 0 0 0 0.10727755,292.87141 h 0.76479997 l -0.54205226,0.54204 a 0.10557269,0.10557269 0 1 0 0.14936463,0.14924 l 0.53972191,-0.53971 v 0.76191 a 0.10549375,0.10549375 0 1 0 0.2109499,0 v -0.76329 l 0.5398608,0.53985 a 0.10534875,0.10534875 0 0 0 0.1518358,-1.3e-4 0.10534875,0.10534875 0 0 0 -0.00265,-0.14909 l -0.5409568,-0.54076 h 0.7653516 a 0.10554507,0.10554507 0 0 0 0,-0.21109 H 1.3815762 l 0.5375278,-0.53753 a 0.10534875,0.10534875 0 0 0 0,-0.1517 0.10534875,0.10534875 0 0 0 -0.1492292,0.002 l -0.5398609,0.53986 v -0.7648 a 0.10534875,0.10534875 0 0 0 -0.1073938,-0.10722 z"
       style="color:#000000;font-style:normal;font-variant:normal;font-weight:normal;font-stretch:normal;font-size:medium;line-height:normal;font-family:sans-serif;font-variant-ligatures:normal;font-variant-position:normal;font-variant-caps:normal;font-variant-numeric:normal;font-variant-alternates:normal;font-feature-settings:normal;text-indent:0;text-align:start;text-decoration:none;text-decoration-line:none;text-decoration-style:solid;text-decoration-color:#000000;letter-spacing:normal;word-spacing:normal;text-transform:none;writing-mode:lr-tb;direction:ltr;text-orientation:mixed;dominant-baseline:auto;baseline-shift:baseline;text-anchor:start;white-space:normal;shape-padding:0;clip-rule:nonzero;display:inline;overflow:visible;visibility:visible;opacity:1;isolation:auto;mix-blend-mode:normal;color-interpolation:sRGB;color-interpolation-filters:linearRGB;solid-color:#000000;solid-opacity:1;vector-effect:none;fill:#ffff10;fill-opacity:1;fill-rule:nonzero;stroke:none;stroke-width:0.79375005;stroke-linecap:round;stroke-linejoin:miter;stroke-miterlimit:4;stroke-dasharray:none;stroke-dashoffset:0;stroke-opacity:1;color-rendering:auto;image-rendering:auto;shape-rendering:auto;text-rendering:auto;enable-background:accumulate" />
    <path
       style="color:#000000;font-style:normal;font-variant:normal;font-weight:normal;font-stretch:normal;font-size:medium;line-height:normal;font-family:sans-serif;font-variant-ligatures:normal;font-variant-position:normal;font-variant-caps:normal;font-variant-numeric:normal;font-variant-alternates:normal;font-feature-settings:normal;text-indent:0;text-align:start;text-decoration:none;text-decoration-line:none;text-decoration-style:solid;text-decoration-color:#000000;letter-spacing:normal;word-spacing:normal;text-transform:none;writing-mode:lr-tb;direction:ltr;text-orientation:mixed;dominant-baseline:auto;baseline-shift:baseline;text-anchor:start;white-space:normal;shape-padding:0;clip-rule:nonzero;display:inline;overflow:visible;visibility:visible;opacity:1;isolation:auto;mix-blend-mode:normal;color-interpolation:sRGB;color-interpolation-filters:linearRGB;solid-color:#000000;solid-opacity:1;vector-effect:none;fill:#ffff10;fill-opacity:1;fill-rule:nonzero;stroke:none;stroke-width:0.79375005;stroke-linecap:round;stroke-linejoin:miter;stroke-miterlimit:4;stroke-dasharray:none;stroke-dashoffset:0;stroke-opacity:1;color-rendering:auto;image-rendering:auto;shape-rendering:auto;text-rendering:auto;enable-background:accumulate"
       d="m 4.2315373,291.64141 a 0.10534875,0.10534875 0 0 0 -0.1035559,0.10722 v 0.7637 l -0.5398572,-0.53985 a 0.10549375,0.10549375 0 1 0 -0.1492293,0.14908 l 0.5388965,0.53877 H 3.2161472 a 0.10534875,0.10534875 0 0 0 -0.1072586,0.10733 0.10534875,0.10534875 0 0 0 0.1072586,0.10375 h 0.7647999 l -0.5420522,0.54204 a 0.10557269,0.10557269 0 1 0 0.1493646,0.14924 l 0.5397219,-0.53971 v 0.76191 a 0.10549375,0.10549375 0 1 0 0.2109499,0 v -0.76329 l 0.5398608,0.53985 a 0.10534875,0.10534875 0 0 0 0.1518358,-1.3e-4 0.10534875,0.10534875 0 0 0 -0.00265,-0.14909 l -0.5409568,-0.54076 h 0.7653516 a 0.10554507,0.10554507 0 0 0 0,-0.21109 H 4.4904458 l 0.5375278,-0.53753 a 0.10534875,0.10534875 0 0 0 0,-0.1517 0.10534875,0.10534875 0 0 0 -0.1492292,0.002 l -0.5398609,0.53986 v -0.7648 a 0.10534875,0.10534875 0 0 0 -0.1073938,-0.10722 z"
       id="path950" />
    <path
       id="path952"
       d="m 7.340407,291.64141 a 0.10534875,0.10534875 0 0 0 -0.1035559,0.10722 v 0.7637 l -0.5398572,-0.53985 a 0.10549375,0.10549375 0 1 0 -0.1492293,0.14908 l 0.5388964,0.53877 H 6.3250168 a 0.10534875,0.10534875 0 0 0 -0.1072585,0.10733 0.10534875,0.10534875 0 0 0 0.1072585,0.10375 h 0.7648 l -0.5420522,0.54204 a 0.10557269,0.10557269 0 1 0 0.1493646,0.14924 l 0.5397219,-0.53971 v 0.76191 a 0.10549375,0.10549375 0 1 0 0.2109499,0 v -0.76329 l 0.5398608,0.53985 a 0.10534875,0.10534875 0 0 0 0.1518358,-1.3e-4 0.10534875,0.10534875 0 0 0 -0.00265,-0.14909 l -0.5409568,-0.54076 h 0.7653516 a 0.10554507,0.10554507 0 0 0 0,-0.21109 H 7.5993155 l 0.5375278,-0.53753 a 0.10534875,0.10534875 0 0 0 0,-0.1517 0.10534875,0.10534875 0 0 0 -0.1492292,0.002 l -0.5398609,0.53986 v -0.7648 a 0.10534875,0.10534875 0 0 0 -0.1073938,-0.10722 z"
       style="color:#000000;font-style:normal;font-variant:normal;font-weight:normal;font-stretch:normal;font-size:medium;line-height:normal;font-family:sans-serif;font-variant-ligatures:normal;font-variant-position:normal;font-variant-caps:normal;font-variant-numeric:normal;font-variant-alternates:normal;font-feature-settings:normal;text-indent:0;text-align:start;text-decoration:none;text-decoration-line:none;text-decoration-style:solid;text-decoration-color:#000000;letter-spacing:normal;word-spacing:normal;text-transform:none;writing-mode:lr-tb;direction:ltr;text-orientation:mixed;dominant-baseline:auto;baseline-shift:baseline;text-anchor:start;white-space:normal;shape-padding:0;clip-rule:nonzero;display:inline;overflow:visible;visibility:visible;opacity:1;isolation:auto;mix-blend-mode:normal;color-interpolation:sRGB;color-interpolation-filters:linearRGB;solid-color:#000000;solid-opacity:1;vector-effect:none;fill:#ffff10;fill-opacity:1;fill-rule:nonzero;stroke:none;stroke-width:0.79375005;stroke-linecap:round;stroke-linejoin:miter;stroke-miterlimit:4;stroke-dasharray:none;stroke-dashoffset:0;stroke-opacity:1;color-rendering:auto;image-rendering:auto;shape-rendering:auto;text-rendering:auto;enable-background:accumulate" />
  </g>
</svg>
