<?xml version="1.0" encoding="UTF-8" standalone="no"?>
<svg
   xmlns:dc="http://purl.org/dc/elements/1.1/"
   xmlns:cc="http://creativecommons.org/ns#"
   xmlns:rdf="http://www.w3.org/1999/02/22-rdf-syntax-ns#"
   xmlns:svg="http://www.w3.org/2000/svg"
   xmlns="http://www.w3.org/2000/svg"
   xmlns:xlink="http://www.w3.org/1999/xlink"
   xmlns:sodipodi="http://sodipodi.sourceforge.net/DTD/sodipodi-0.dtd"
   xmlns:inkscape="http://www.inkscape.org/namespaces/inkscape"
   id="svg8"
   version="1.1"
   viewBox="0 0 8.4666665 8.4666669"
   height="32"
   width="32"
   inkscape:version="0.92.3 (2405546, 2018-03-11)"
   sodipodi:docname="POV-Logo.svg"
   inkscape:export-filename="/media/otto/SANDISK/POV-Logo.svg.png"
   inkscape:export-xdpi="96"
   inkscape:export-ydpi="96">
  <sodipodi:namedview
     pagecolor="#ffffff"
     bordercolor="#666666"
     borderopacity="1"
     objecttolerance="10"
     gridtolerance="10"
     guidetolerance="10"
     inkscape:pageopacity="0"
     inkscape:pageshadow="2"
     inkscape:window-width="1366"
     inkscape:window-height="711"
     id="namedview11"
     showgrid="false"
     inkscape:zoom="5.5625733"
     inkscape:cx="1.4150653"
     inkscape:cy="17.073466"
     inkscape:window-x="0"
     inkscape:window-y="0"
     inkscape:window-maximized="0"
     inkscape:current-layer="svg8"
     inkscape:measure-start="120.89,52.7542"
     inkscape:measure-end="126.737,50.6568"
     inkscape:snap-smooth-nodes="true"
     showguides="true"
     inkscape:guide-bbox="true"
     inkscape:snap-global="true" />
  <defs
     id="defs2">
    <linearGradient
       id="linearGradient872">
      <stop
         id="stop868"
         offset="0"
         style="stop-color:#2132ee;stop-opacity:1;" />
      <stop
         id="stop870"
         offset="1"
         style="stop-color:#4bbff8;stop-opacity:1" />
    </linearGradient>
    <linearGradient
       gradientTransform="matrix(0.06599679,0,0,0.06599679,-16.56302,-26.525204)"
       gradientUnits="userSpaceOnUse"
       y2="414.24216"
       x2="375.77621"
       y1="498.84241"
       x1="258.09375"
       id="linearGradient874"
       xlink:href="#linearGradient872" />
    <linearGradient
       inkscape:collect="always"
       xlink:href="#linearGradient872"
       id="linearGradient890"
       x1="16.504559"
       y1="19.510672"
       x2="22.435015"
       y2="13.456647"
       gradientUnits="userSpaceOnUse"
       gradientTransform="matrix(0.21320834,0,0,0.21320834,0.28772893,0.15325938)" />
  </defs>
  <metadata
     id="metadata5">
    <rdf:RDF>
      <cc:Work
         rdf:about="">
        <dc:format>image/svg+xml</dc:format>
        <dc:type
           rdf:resource="http://purl.org/dc/dcmitype/StillImage" />
        <dc:title></dc:title>
      </cc:Work>
    </rdf:RDF>
  </metadata>
  <g
     id="g900"
     transform="translate(-0.30367077,0.71987926)">
    <path
       inkscape:connector-curvature="0"
       id="rect815"
       d="M 3.7370506,0.45285268 3.4758993,1.0740219 H 2.7784214 V 0.94692644 c 0,-0.0961579 -0.07747,-0.17362816 -0.1736281,-0.17362816 H 1.551938 c -0.096158,0 -0.1734993,0.0774703 -0.1734993,0.17362816 V 1.0740219 h -0.09139 c -0.54476787,0 -0.98337797,0.4384818 -0.98337797,0.9832491 v 3.5334065 c 0,0.5447673 0.4386101,0.983378 0.98337797,0.983378 h 6.5000388 c 0.544769,0 0.98325,-0.4386107 0.98325,-0.983378 V 2.057271 c 0,-0.5447673 -0.438481,-0.9832491 -0.98325,-0.9832491 H 5.5981088 L 5.3369573,0.45285268 H 4.5370041 Z M 4.4101665,2.3752674 A 1.3268965,1.3067885 0 0 1 5.737063,3.6820554 1.3268965,1.3067885 0 0 1 4.4101665,4.9888433 1.3268965,1.3067885 0 0 1 3.08327,3.6820554 1.3268965,1.3067885 0 0 1 4.4101665,2.3752674 Z M 0.77840923,2.4170311 H 1.9100222 c 0.3426979,0 0.5840948,0.099496 0.7242892,0.298661 l 0.041763,0.070122 c 0.053407,0.1023642 0.080176,0.2231269 0.080176,0.3622089 0,0.1913765 -0.05566,0.3459697 -0.1669255,0.4639111 l -0.063419,0.056845 -0.0067,0.00658 C 2.3734462,3.7932952 2.1971523,3.8523336 1.9901985,3.8523336 H 1.1288883 V 4.9087979 H 0.77840923 Z m 5.20395037,0 h 0.377161 L 7.1656616,4.5266079 7.9233355,2.417031 h 0.372263 L 7.3441882,4.9087964 H 6.9687021 Z M 1.1288883,2.6973884 v 0.8745864 h 0.7277694 c 0.2180804,0 0.3721102,-0.06298 0.4622352,-0.1887096 0.048957,-0.067872 0.073473,-0.1507346 0.073473,-0.248648 0,-0.1691236 -0.070605,-0.2914465 -0.2119115,-0.3671071 L 2.1103329,2.7358007 C 2.0368976,2.7102095 1.952346,2.6973884 1.8566577,2.6973884 Z"
       style="opacity:1;fill:url(#linearGradient874);fill-opacity:1;stroke:none;stroke-width:0.19799039;stroke-linecap:butt;stroke-linejoin:miter;stroke-miterlimit:4;stroke-dasharray:none;stroke-dashoffset:0;stroke-opacity:1" />
    <ellipse
       style="opacity:1;fill:url(#linearGradient890);fill-opacity:1;stroke:none;stroke-width:0.19799039;stroke-miterlimit:4;stroke-dasharray:none;stroke-opacity:1"
       id="ellipse880"
       cx="4.4101663"
       cy="3.682055"
       rx="0.97641659"
       ry="0.96161968" />
  </g>
</svg>
