<?xml version="1.0" encoding="UTF-8" standalone="no"?>
<svg
   xmlns:dc="http://purl.org/dc/elements/1.1/"
   xmlns:cc="http://creativecommons.org/ns#"
   xmlns:rdf="http://www.w3.org/1999/02/22-rdf-syntax-ns#"
   xmlns:svg="http://www.w3.org/2000/svg"
   xmlns="http://www.w3.org/2000/svg"
   xmlns:xlink="http://www.w3.org/1999/xlink"
   width="64"
   height="64"
   viewBox="0 0 16.933333 16.933334"
   version="1.1"
   id="svg8">
  <defs
     id="defs2">
    <linearGradient
       id="linearGradient975">
      <stop
         id="stop971"
         offset="0"
         style="stop-color:#204a87;stop-opacity:1" />
      <stop
         id="stop973"
         offset="1"
         style="stop-color:#729fcf;stop-opacity:1" />
    </linearGradient>
    <linearGradient
       id="linearGradient872">
      <stop
         style="stop-color:#2132ee;stop-opacity:1;"
         offset="0"
         id="stop868" />
      <stop
         style="stop-color:#4bbff8;stop-opacity:1"
         offset="1"
         id="stop870" />
    </linearGradient>
    <linearGradient
       xlink:href="#linearGradient872"
       id="linearGradient874"
       x1="258.09375"
       y1="498.84241"
       x2="375.77621"
       y2="414.24216"
       gradientUnits="userSpaceOnUse"
       gradientTransform="matrix(0.06599679,0,0,0.06599679,-16.56302,-26.525204)" />
  </defs>
  <metadata
     id="metadata5">
    <rdf:RDF>
      <cc:Work
         rdf:about="">
        <dc:format>image/svg+xml</dc:format>
        <dc:type
           rdf:resource="http://purl.org/dc/dcmitype/StillImage" />
        <dc:title></dc:title>
      </cc:Work>
    </rdf:RDF>
  </metadata>
  <path
     id="rect890"
     transform="scale(0.26458334)"
     d="M 26 10 L 24.480469 14 L 21 14 L 21 13 C 21 12.446 20.554 12 20 12 L 12 12 C 11.446 12 11 12.446 11 13 L 11 14 L 10 14 C 6.1219997 14 3 17.122 3 21 L 3 47 C 3 50.877999 6.1219997 54 10 54 L 54 54 C 57.878003 54 61 50.877999 61 47 L 61 21 C 61 17.122 57.878003 14 54 14 L 39.519531 14 L 38 10 L 26 10 z M 30 25.001953 C 34.958718 25.001953 38.998047 29.043235 38.998047 34.001953 C 38.998047 38.960671 34.958718 43 30 43 C 25.041282 43 21.001953 38.960671 21.001953 34.001953 C 21.001953 29.043235 25.041282 25.001953 30 25.001953 z "
     style="opacity:1;fill:#3465a4;fill-opacity:1;stroke:#0b1521;stroke-width:2;stroke-linecap:round;stroke-linejoin:round;stroke-miterlimit:4;stroke-dasharray:none;stroke-dashoffset:0;stroke-opacity:1" />
  <path
     id="path873"
     d="m 27.378906,9 -1.029297,2.710938 A 2.0002002,2.0002002 0 0 1 24.480469,13 H 21 a 2.0002002,2.0002002 0 0 1 -2,-2 h -6 a 2.0002002,2.0002002 0 0 1 -2,2 h -1 c -2.8045945,0 -5,2.195406 -5,5 v 26 c 0,2.804593 2.1954059,5 5,5 h 44 c 2.804598,0 5,-2.195406 5,-5 V 18 c 0,-2.804595 -2.195402,-5 -5,-5 H 39.519531 a 2.0002002,2.0002002 0 0 1 -1.86914,-1.289062 L 36.621094,9 Z"
     style="opacity:1;fill:none;fill-opacity:1;stroke:#729fcf;stroke-width:2;stroke-linecap:round;stroke-linejoin:miter;stroke-miterlimit:4;stroke-dasharray:none;stroke-dashoffset:0;stroke-opacity:1"
     transform="matrix(0.26458334,0,0,0.26458334,-1.3000001e-7,0.79374989)" />
  <path
     transform="scale(0.26458334)"
     id="path851"
     d="M 40.96875 24.988281 A 1.0001001 1.0001001 0 0 0 40.083984 26.398438 L 47.072266 42.378906 L 47.082031 42.402344 A 1.0032448 1.0032448 0 0 0 47.09375 42.423828 A 1.0032448 1.0032448 0 0 0 47.123047 42.486328 A 1.0032448 1.0032448 0 0 0 47.158203 42.541016 A 1.0032448 1.0032448 0 0 0 47.167969 42.556641 A 1.0032448 1.0032448 0 0 0 47.195312 42.595703 A 1.0032448 1.0032448 0 0 0 47.242188 42.654297 A 1.0032448 1.0032448 0 0 0 47.300781 42.71875 A 1.0032448 1.0032448 0 0 0 47.347656 42.761719 A 1.0032448 1.0032448 0 0 0 47.375 42.783203 A 1.0032448 1.0032448 0 0 0 47.419922 42.814453 A 1.0032448 1.0032448 0 0 0 47.457031 42.841797 A 1.0032448 1.0032448 0 0 0 47.525391 42.880859 A 1.0032448 1.0032448 0 0 0 47.537109 42.888672 A 1.0032448 1.0032448 0 0 0 47.601562 42.917969 A 1.0032448 1.0032448 0 0 0 47.632812 42.931641 A 1.0032448 1.0032448 0 0 0 47.6875 42.951172 A 1.0032448 1.0032448 0 0 0 47.740234 42.966797 A 1.0032448 1.0032448 0 0 0 47.755859 42.970703 A 1.0032448 1.0032448 0 0 0 47.833984 42.988281 A 1.0032448 1.0032448 0 0 0 47.859375 42.992188 A 1.0032448 1.0032448 0 0 0 47.941406 43 A 1.0032448 1.0032448 0 0 0 48.023438 43.001953 A 1.0032448 1.0032448 0 0 0 48.082031 42.998047 A 1.0032448 1.0032448 0 0 0 48.134766 42.992188 A 1.0032448 1.0032448 0 0 0 48.167969 42.988281 A 1.0032448 1.0032448 0 0 0 48.216797 42.978516 A 1.0032448 1.0032448 0 0 0 48.240234 42.972656 A 1.0032448 1.0032448 0 0 0 48.3125 42.953125 A 1.0032448 1.0032448 0 0 0 48.318359 42.951172 A 1.0032448 1.0032448 0 0 0 48.40625 42.916016 A 1.0032448 1.0032448 0 0 0 48.488281 42.875 A 1.0032448 1.0032448 0 0 0 48.496094 42.871094 A 1.0032448 1.0032448 0 0 0 48.498047 42.869141 A 1.0032448 1.0032448 0 0 0 48.554688 42.833984 A 1.0032448 1.0032448 0 0 0 48.580078 42.818359 A 1.0032448 1.0032448 0 0 0 48.601562 42.802734 A 1.0032448 1.0032448 0 0 0 48.619141 42.787109 A 1.0032448 1.0032448 0 0 0 48.677734 42.738281 A 1.0032448 1.0032448 0 0 0 48.732422 42.685547 A 1.0032448 1.0032448 0 0 0 48.748047 42.667969 A 1.0032448 1.0032448 0 0 0 48.796875 42.609375 A 1.0032448 1.0032448 0 0 0 48.798828 42.605469 A 1.0032448 1.0032448 0 0 0 48.847656 42.535156 A 1.0032448 1.0032448 0 0 0 48.853516 42.527344 A 1.0032448 1.0032448 0 0 0 48.855469 42.523438 A 1.0032448 1.0032448 0 0 0 48.882812 42.474609 A 1.0032448 1.0032448 0 0 0 48.912109 42.416016 A 1.0032448 1.0032448 0 0 0 48.919922 42.402344 L 55.917969 26.398438 A 1.0001001 1.0001001 0 0 0 55.001953 24.988281 A 1.0001001 1.0001001 0 0 0 54.087891 25.599609 L 48 39.5 L 41.914062 25.599609 A 1.0001001 1.0001001 0 0 0 40.96875 24.988281 z M 7.8984375 25.001953 A 1.0001001 1.0001001 0 0 0 6.9980469 25.998047 L 6.9980469 42.003906 A 1.0002461 1.0002461 0 1 0 8.9980469 42.003906 L 8.9980469 36.998047 L 14.003906 36.998047 C 16.888595 36.998046 19.001953 34.189869 19.001953 30.996094 C 19.001953 27.855179 16.955987 25.102234 14.144531 25.011719 A 1.0002459 1.0002459 0 0 0 14.083984 25.007812 C 14.070764 25.00757 14.058175 25.00403 14.044922 25.003906 A 1.0002459 1.0002459 0 0 0 14.003906 25.001953 L 8.0019531 25.001953 A 1.0001001 1.0001001 0 0 0 7.8984375 25.001953 z M 30 25.001953 C 25.041282 25.001953 21.001953 29.043235 21.001953 34.001953 C 21.001953 38.960671 25.041282 43 30 43 C 34.958718 43 38.998047 38.960671 38.998047 34.001953 C 38.998047 29.043235 34.958718 25.001953 30 25.001953 z M 8.9980469 27.003906 L 14.003906 27.003906 C 15.537495 27.003907 17 28.667022 17 30.996094 C 17 33.325165 15.537495 34.998047 14.003906 34.998047 L 8.9980469 34.998047 L 8.9980469 27.003906 z M 30 27.003906 C 33.877838 27.003906 36.998047 30.124115 36.998047 34.001953 C 36.998047 37.879791 33.877838 40.998047 30 40.998047 C 26.122162 40.998047 23.001953 37.879791 23.001953 34.001953 C 23.001953 30.124115 26.122162 27.003907 30 27.003906 z "
     style="color:#000000;font-style:normal;font-variant:normal;font-weight:normal;font-stretch:normal;font-size:medium;line-height:normal;font-family:sans-serif;font-variant-ligatures:normal;font-variant-position:normal;font-variant-caps:normal;font-variant-numeric:normal;font-variant-alternates:normal;font-feature-settings:normal;text-indent:0;text-align:start;text-decoration:none;text-decoration-line:none;text-decoration-style:solid;text-decoration-color:#000000;letter-spacing:normal;word-spacing:normal;text-transform:none;writing-mode:lr-tb;direction:ltr;text-orientation:mixed;dominant-baseline:auto;baseline-shift:baseline;text-anchor:start;white-space:normal;shape-padding:0;clip-rule:nonzero;display:inline;overflow:visible;visibility:visible;opacity:1;isolation:auto;mix-blend-mode:normal;color-interpolation:sRGB;color-interpolation-filters:linearRGB;solid-color:#000000;solid-opacity:1;vector-effect:none;fill:#0b1521;fill-opacity:1;fill-rule:nonzero;stroke:none;stroke-width:2;stroke-linecap:round;stroke-linejoin:round;stroke-miterlimit:4;stroke-dasharray:none;stroke-dashoffset:0;stroke-opacity:1;color-rendering:auto;image-rendering:auto;shape-rendering:auto;text-rendering:auto;enable-background:accumulate" />
  <path
     id="path886"
     d="m 40.941406,24 c -0.651571,0.01775 -1.284437,0.379507 -1.630859,0.931641 -0.346422,0.552133 -0.396402,1.278651 -0.128906,1.873047 l 6.980468,15.96289 0.0078,0.01563 c 0.01176,0.02793 0.02479,0.0553 0.03906,0.08203 0.0018,0.0033 0.0041,0.0064 0.0059,0.0098 0.0095,0.02029 0.01714,0.0406 0.02734,0.06055 0.0104,0.0199 0.02147,0.03944 0.0332,0.05859 0.01278,0.02138 0.02549,0.04162 0.03906,0.0625 0.0064,0.0104 0.01297,0.02097 0.01953,0.03125 0.0026,0.0033 0.0052,0.0066 0.0078,0.0098 8.31e-4,0.0012 0.0011,0.0027 0.002,0.0039 6.66e-4,6.68e-4 0.0013,0.0013 0.002,0.002 0.01748,0.02628 0.03403,0.05271 0.05273,0.07813 6.66e-4,6.68e-4 0.0013,0.0013 0.002,0.002 0.02601,0.03514 0.05376,0.07017 0.08203,0.103515 0.0018,0.0021 0.0041,0.0037 0.0059,0.0059 0.0021,0.0025 0.0037,0.0054 0.0059,0.0078 0.03342,0.0394 0.06909,0.0766 0.105468,0.113281 0.0032,0.0039 0.0065,0.0078 0.0098,0.01172 0.03011,0.02941 0.06184,0.05849 0.09375,0.08594 0.0064,0.0059 0.01294,0.01181 0.01953,0.01758 0.01785,0.01453 0.03635,0.02711 0.05469,0.04102 0.0039,0.0033 0.0078,0.0066 0.01172,0.0098 0.02916,0.02149 0.0576,0.04068 0.08789,0.06055 0.0041,0.003 0.0075,0.0068 0.01172,0.0098 0.01471,0.01017 0.02969,0.01994 0.04492,0.0293 0.01987,0.01241 0.04025,0.02345 0.06055,0.03516 0.02486,0.01434 0.04876,0.02972 0.07422,0.04297 0.009,0.0054 0.01814,0.01056 0.02734,0.01563 0.03056,0.01521 0.06245,0.02935 0.09375,0.04297 0.0071,0.0033 0.01435,0.0066 0.02148,0.0098 0.0045,0.0019 0.0091,0.004 0.01367,0.0059 0.009,0.0039 0.01826,0.0079 0.02734,0.01172 0.0071,0.0034 0.01428,0.0066 0.02148,0.0098 0.03524,0.01375 0.07146,0.02539 0.107421,0.03711 0.03461,0.01129 0.07029,0.02187 0.105469,0.03125 0.002,6.73e-4 0.0039,0.0013 0.0059,0.002 0.01032,0.0027 0.02089,0.0053 0.03125,0.0078 0.04363,0.0111 0.08853,0.02117 0.132812,0.0293 0.0052,7.08e-4 0.01042,0.0014 0.01563,0.002 0.01677,0.0028 0.03199,0.0054 0.04883,0.0078 0.0013,6.7e-4 0.0026,0.0013 0.0039,0.002 0.05022,0.0069 0.101752,0.01065 0.152344,0.01367 0.05421,0.0035 0.109748,0.0048 0.164063,0.0039 0.0065,6.4e-5 0.01302,6.4e-5 0.01953,0 0.03557,-0.0013 0.07002,-0.0046 0.105469,-0.0078 0.035,-0.003 0.06872,-0.0069 0.103515,-0.01172 l -0.03516,0.0059 c 0.02202,-0.0022 0.04448,-0.0049 0.06641,-0.0078 0.01241,-0.0017 0.02478,-0.0037 0.03711,-0.0059 0.03247,-0.0057 0.06551,-0.01227 0.09766,-0.01953 0.0033,-6.5e-4 0.0065,-0.0013 0.0098,-0.002 0.01556,-0.0037 0.03141,-0.0077 0.04688,-0.01172 l -0.0293,0.0059 c 0.04829,-0.01114 0.09525,-0.02436 0.142578,-0.03906 0.0059,-0.0012 0.01173,-0.0025 0.01758,-0.0039 0.0039,-0.0013 0.0078,-0.0026 0.01172,-0.0039 0.0026,-0.0013 0.0052,-0.0026 0.0078,-0.0039 0.05589,-0.01935 0.110116,-0.04021 0.164063,-0.06445 0.04017,-0.01784 0.08024,-0.03814 0.11914,-0.05859 l 0.01563,-0.0078 c 0.01719,-0.0086 0.03412,-0.01774 0.05078,-0.02734 L 49,43.720703 c 0.0052,-0.0032 0.01045,-0.0065 0.01563,-0.0098 0.0038,-0.0022 0.008,-0.0036 0.01172,-0.0059 0.0026,-0.002 0.0052,-0.0039 0.0078,-0.0059 0.0085,-0.0052 0.01694,-0.01029 0.02539,-0.01563 l 0.04297,-0.02734 c 0.0024,-0.0015 0.0054,-0.0024 0.0078,-0.0039 0.01324,-0.0088 0.02626,-0.01791 0.03906,-0.02734 0.01436,-0.01015 0.02889,-0.02072 0.04297,-0.03125 0.01943,-0.01424 0.03833,-0.02919 0.05666,-0.04481 0.01176,-0.0102 0.02364,-0.02077 0.03516,-0.03125 0.01688,-0.01414 0.03438,-0.02828 0.05078,-0.04297 l 0.0039,-0.002 c 0.03639,-0.03266 0.07158,-0.06631 0.105468,-0.101562 0.0059,-0.0064 0.01181,-0.01294 0.01758,-0.01953 0.0065,-0.0071 0.01317,-0.01429 0.01953,-0.02148 l 0.0059,-0.0078 c 0.03144,-0.03529 0.06294,-0.07194 0.0918,-0.109375 0.002,-0.0033 0.004,-0.0065 0.0059,-0.0098 0.01588,-0.0209 0.02988,-0.04294 0.04492,-0.06445 0.0013,-0.002 0.0026,-0.0039 0.0039,-0.0059 l 0.002,-0.002 c 6.7e-4,-0.0013 0.0013,-0.0026 0.002,-0.0039 l 0.0078,-0.0098 c 0.02102,-0.0276 0.04058,-0.05628 0.05859,-0.08594 l 0.002,-0.002 c 0.01041,-0.0192 0.02018,-0.03874 0.0293,-0.05859 0.0048,-0.0087 0.01096,-0.01662 0.01563,-0.02539 l 0.0059,-0.01172 c 0.0034,-0.0064 0.0064,-0.01312 0.0098,-0.01953 l 0.01367,-0.02734 c 0.01643,-0.02853 0.03142,-0.05786 0.04492,-0.08789 l 6.99414,-15.99414 c 0.27143,-0.60378 0.214128,-1.345249 -0.146484,-1.900391 C 56.313216,24.349154 55.660027,23.997452 54.998047,24 c -0.0013,-3e-6 -0.0026,-3e-6 -0.0039,0 -0.771757,0.0057 -1.516412,0.503757 -1.816407,1.214844 L 48,37.033203 42.824219,25.214844 C 42.51633,24.484481 41.737695,23.981177 40.945312,24 c -0.0013,-3e-6 -0.0026,-3e-6 -0.0039,0 z M 7.8476562,24.01367 c -0.015654,9.28e-4 -0.031283,0.0022 -0.046875,0.0039 -0.9709218,0.09728 -1.7919686,1.004686 -1.7910156,1.980469 v 15.984375 c -0.023426,1.055864 0.9321572,2.033203 1.9882813,2.033203 1.056124,0 2.0117081,-0.977339 1.9882812,-2.033203 V 37.98632 h 4.0175779 c 1.763174,0 3.305253,-0.876096 4.34961,-2.169922 1.044356,-1.293825 1.636718,-3.005344 1.636718,-4.820312 0,-3.570275 -2.373994,-6.861891 -5.814453,-6.972656 -0.01943,-0.0012 -0.03914,-0.0032 -0.05859,-0.0039 -0.0052,-4.1e-5 -0.01042,-4.1e-5 -0.01563,0 0.152903,0.0028 0.136977,-0.0025 -0.04883,-0.0039 -0.0073,-2.79e-4 -0.01417,-0.0018 -0.02148,-0.002 -0.0091,-1.26e-4 -0.01823,-1.26e-4 -0.02734,0 H 8.0527344 c -0.068556,-0.0036 -0.1365219,-0.0036 -0.2050782,0 z M 30,24.01367 c -5.495909,0 -9.986328,4.492631 -9.986328,9.988281 0,5.495652 4.490679,9.986328 9.986328,9.986328 5.49565,0 9.986328,-4.490678 9.986328,-9.986328 0,-5.49565 -4.490419,-9.988281 -9.986328,-9.988281 z M 9.9863281,27.992188 h 4.0175779 c 0.818777,0 2.007813,1.088732 2.007813,3.003906 0,1.915172 -1.193235,3.013672 -2.007813,3.013672 H 9.9863281 Z"
     style="color:#000000;font-style:normal;font-variant:normal;font-weight:normal;font-stretch:normal;font-size:medium;line-height:normal;font-family:sans-serif;font-variant-ligatures:normal;font-variant-position:normal;font-variant-caps:normal;font-variant-numeric:normal;font-variant-alternates:normal;font-feature-settings:normal;text-indent:0;text-align:start;text-decoration:none;text-decoration-line:none;text-decoration-style:solid;text-decoration-color:#000000;letter-spacing:normal;word-spacing:normal;text-transform:none;writing-mode:lr-tb;direction:ltr;text-orientation:mixed;dominant-baseline:auto;baseline-shift:baseline;text-anchor:start;white-space:normal;shape-padding:0;clip-rule:nonzero;display:inline;overflow:visible;visibility:visible;opacity:1;isolation:auto;mix-blend-mode:normal;color-interpolation:sRGB;color-interpolation-filters:linearRGB;solid-color:#000000;solid-opacity:1;vector-effect:none;fill:none;fill-opacity:1;fill-rule:nonzero;stroke:#729fcf;stroke-width:2;stroke-linecap:round;stroke-linejoin:miter;stroke-miterlimit:4;stroke-dasharray:none;stroke-dashoffset:0;stroke-opacity:1;color-rendering:auto;image-rendering:auto;shape-rendering:auto;text-rendering:auto;enable-background:accumulate"
     transform="scale(0.26458334)" />
</svg>
