<?xml version="1.0" encoding="UTF-8" standalone="no"?>
<svg
   xmlns:dc="http://purl.org/dc/elements/1.1/"
   xmlns:cc="http://creativecommons.org/ns#"
   xmlns:rdf="http://www.w3.org/1999/02/22-rdf-syntax-ns#"
   xmlns:svg="http://www.w3.org/2000/svg"
   xmlns="http://www.w3.org/2000/svg"
   id="svg8"
   version="1.1"
   viewBox="0 0 16.933333 16.933334"
   height="64"
   width="64">
  <defs
     id="defs2" />
  <metadata
     id="metadata5">
    <rdf:RDF>
      <cc:Work
         rdf:about="">
        <dc:format>image/svg+xml</dc:format>
        <dc:type
           rdf:resource="http://purl.org/dc/dcmitype/StillImage" />
        <dc:title></dc:title>
      </cc:Work>
    </rdf:RDF>
  </metadata>
  <path
     id="rect820"
     d="m 8.4666668,0.52916654 c -0.5863101,0 -1.0583334,0.47201336 -1.0583334,1.05833336 v 4.324284 L 4.3506387,2.8540892 c -0.4145907,-0.4145899 -1.0819585,-0.4145899 -1.4965495,0 -0.4145837,0.4145802 -0.4145908,1.0819596 0,1.4965495 l 3.0576947,3.0576947 h -4.324284 c -0.5863167,0 -1.05833336,0.4720233 -1.05833336,1.0583334 0,0.5863201 0.47201666,1.0583333 1.05833336,1.0583333 h 4.324284 L 2.8540892,12.582695 c -0.4145884,0.41459 -0.4145837,1.081969 0,1.496549 0.414591,0.41459 1.0819612,0.41459 1.4965495,0 L 7.4083334,11.02155 v 4.324284 c 0,0.58632 0.4720233,1.058333 1.0583334,1.058333 0.5863201,0 1.0583333,-0.472013 1.0583333,-1.058333 V 11.02155 l 3.0576949,3.057694 c 0.414591,0.41459 1.081966,0.41458 1.496549,0 0.414591,-0.41459 0.414591,-1.081959 0,-1.496549 L 11.02155,9.5250001 h 4.324284 c 0.586317,0 1.058333,-0.4720132 1.058333,-1.0583333 0,-0.5863101 -0.472016,-1.0583334 -1.058333,-1.0583334 H 11.02155 l 3.057694,-3.0576947 c 0.414589,-0.4145899 0.414591,-1.0819593 0,-1.4965495 -0.414583,-0.4145799 -1.08196,-0.4145899 -1.496549,0 L 9.5250001,5.9117839 v -4.324284 c 0,-0.58632 -0.4720132,-1.05833336 -1.0583333,-1.05833336 z"
     style="fill:#302b00;fill-opacity:1;stroke:none;stroke-width:0.529167;stroke-linecap:round;stroke-linejoin:miter;stroke-miterlimit:4;stroke-dasharray:none;stroke-dashoffset:0;stroke-opacity:1" />
  <path
     id="rect817"
     d="m 8.4666666,1.0583334 c -0.29316,0 -0.5291664,0.2360066 -0.5291664,0.5291666 V 7.1892254 L 3.9765016,3.2282268 c -0.207295,-0.2072999 -0.540979,-0.2072999 -0.748275,0 -0.207295,0.20729 -0.207295,0.5409849 0,0.7482748 L 7.1892254,7.9375002 H 1.5874996 c -0.293158,0 -0.529166,0.2360068 -0.529166,0.5291667 0,0.2931599 0.236008,0.5291667 0.529166,0.5291667 H 7.1892254 L 3.2282266,12.956832 c -0.207294,0.20729 -0.207295,0.540985 0,0.748275 0.207296,0.2073 0.540981,0.2073 0.748275,0 L 7.9375002,9.7441083 v 5.6017257 c 0,0.29316 0.2360064,0.529166 0.5291664,0.529166 0.29316,0 0.529167,-0.236006 0.529167,-0.529166 V 9.7441083 l 3.9609984,3.9609987 c 0.207296,0.2073 0.54098,0.2073 0.748275,0 0.207296,-0.20729 0.207296,-0.540985 0,-0.748275 L 9.7441086,8.9958336 h 5.6017254 c 0.293158,0 0.529166,-0.2360068 0.529166,-0.5291667 0,-0.2931599 -0.236008,-0.5291667 -0.529166,-0.5291667 H 9.7441086 L 13.705107,3.9765016 c 0.207294,-0.2072899 0.207296,-0.5409848 0,-0.7482748 -0.207295,-0.2072999 -0.54098,-0.2072999 -0.748275,0 L 8.9958336,7.1892254 V 1.5875 c 0,-0.29316 -0.236007,-0.5291666 -0.529167,-0.5291666 z"
     style="fill:#edd400;fill-opacity:1;stroke:none;stroke-width:0.529167;stroke-linecap:round;stroke-linejoin:miter;stroke-miterlimit:4;stroke-dasharray:none;stroke-dashoffset:0;stroke-opacity:1" />
</svg>
