<?xml version="1.0" encoding="UTF-8" standalone="no"?>
<svg
   xmlns:dc="http://purl.org/dc/elements/1.1/"
   xmlns:cc="http://creativecommons.org/ns#"
   xmlns:rdf="http://www.w3.org/1999/02/22-rdf-syntax-ns#"
   xmlns:svg="http://www.w3.org/2000/svg"
   xmlns="http://www.w3.org/2000/svg"
   width="32"
   height="32"
   viewBox="0 0 8.4666665 8.4666669"
   version="1.1"
   id="svg8">
  <defs
     id="defs2" />
  <metadata
     id="metadata5">
    <rdf:RDF>
      <cc:Work
         rdf:about="">
        <dc:format>image/svg+xml</dc:format>
        <dc:type
           rdf:resource="http://purl.org/dc/dcmitype/StillImage" />
        <dc:title></dc:title>
      </cc:Work>
    </rdf:RDF>
  </metadata>
  <path
     id="path819"
     transform="scale(0.26458333)"
     d="M 7.9863281 0 A 0.74946652 0.74946652 0 0 0 7.25 0.76367188 L 7.25 6.1953125 L 3.4101562 2.3554688 A 0.75049795 0.75049795 0 1 0 2.3476562 3.4160156 L 6.1816406 7.25 L 0.76367188 7.25 A 0.74946652 0.74946652 0 0 0 0 8.0136719 A 0.74946652 0.74946652 0 0 0 0.76367188 8.75 L 6.203125 8.75 L 2.3476562 12.607422 A 0.75103653 0.75103653 0 1 0 3.4101562 13.667969 L 7.25 9.828125 L 7.25 15.25 A 0.75049795 0.75049795 0 1 0 8.75 15.25 L 8.75 13.267578 L 13.685547 31.46875 A 0.75037901 0.75037901 0 0 0 15.132812 31.070312 L 9.5957031 10.664062 L 9.8300781 10.898438 L 30.619141 31.742188 A 0.75007498 0.75007498 0 1 0 31.675781 30.679688 L 13.71875 12.669922 A 0.74946652 0.74946652 0 0 0 13.652344 12.597656 L 11.373047 10.318359 L 10.681641 9.625 L 31.003906 15.310547 A 0.75007498 0.75007498 0 1 0 31.410156 13.871094 L 13.113281 8.75 L 15.25 8.75 A 0.75085542 0.75085542 0 0 0 15.25 7.25 L 9.828125 7.25 L 13.652344 3.4257812 A 0.74946652 0.74946652 0 0 0 13.652344 2.3457031 A 0.74946652 0.74946652 0 0 0 12.591797 2.3632812 L 8.75 6.203125 L 8.75 0.76367188 A 0.74946652 0.74946652 0 0 0 7.9863281 0 z "
     style="color:#000000;font-style:normal;font-variant:normal;font-weight:normal;font-stretch:normal;font-size:medium;line-height:normal;font-family:sans-serif;font-variant-ligatures:normal;font-variant-position:normal;font-variant-caps:normal;font-variant-numeric:normal;font-variant-alternates:normal;font-feature-settings:normal;text-indent:0;text-align:start;text-decoration:none;text-decoration-line:none;text-decoration-style:solid;text-decoration-color:#000000;letter-spacing:normal;word-spacing:normal;text-transform:none;writing-mode:lr-tb;direction:ltr;text-orientation:mixed;dominant-baseline:auto;baseline-shift:baseline;text-anchor:start;white-space:normal;shape-padding:0;clip-rule:nonzero;display:inline;overflow:visible;visibility:visible;opacity:1;isolation:auto;mix-blend-mode:normal;color-interpolation:sRGB;color-interpolation-filters:linearRGB;solid-color:#000000;solid-opacity:1;vector-effect:none;fill:#ffff10;fill-opacity:1;fill-rule:nonzero;stroke:none;stroke-width:1.49878311;stroke-linecap:round;stroke-linejoin:miter;stroke-miterlimit:4;stroke-dasharray:none;stroke-dashoffset:0;stroke-opacity:1;color-rendering:auto;image-rendering:auto;shape-rendering:auto;text-rendering:auto;enable-background:accumulate" />
</svg>
